<?xml version="1.0" encoding="utf-8"?>
<!-- Generator: Adobe Illustrator 27.5.0, SVG Export Plug-In . SVG Version: 6.00 Build 0)  -->
<svg version="1.1" id="Слой" xmlns="http://www.w3.org/2000/svg" xmlns:xlink="http://www.w3.org/1999/xlink" x="0px" y="0px"
	 viewBox="0 0 2000 2000" style="enable-background:new 0 0 2000 2000;" xml:space="preserve">
<rect style="fill:#FFFFFF;" width="2000" height="2000"/>
<path style="fill:#F9E5EF;" d="M344.402,1521.066l-6.706-3.412c0,0-192.353-102.471-160.588-307.882
	c31.765-205.412,182.1-241.579,376.941-343.059c304.941-158.824,396.75-336,623.316-381.177
	c226.566-45.176,709.39,93.177,726.331,550.588c16.94,457.412-251.294,485.294-251.294,485.294L344.402,1521.066L344.402,1521.066z"
	/>
<g>
	<polygon style="fill:#FFFFFF;" points="467.922,703.068 463.678,662.261 485.278,664.474 492.094,703.394 	"/>
	<path style="fill:#0E2549;" d="M493.884,704.917l-27.315-0.368l-4.573-43.968l24.564,2.517L493.884,704.917z M469.277,701.586
		l21.028,0.283l-6.309-36.019l-18.635-1.909L469.277,701.586z"/>
	<polygon style="fill:#FFFFFF;" points="528.085,710.496 548.303,678.044 565.247,690.406 547.861,725.094 	"/>
	<path style="fill:#0E2549;" d="M548.403,727.359l-22.324-16.479l21.803-34.998l19.274,14.061L548.403,727.359z M530.092,710.113
		l17.227,12.715l16.018-31.96l-14.614-10.662L530.092,710.113z"/>
	<path style="fill:#E2474B;" d="M464.656,671.017c0,0-30.222,5.041-30.884-8.115c-0.662-13.157,0.166-12.306,0.166-12.306
		l52.581,0.708l0.819,15.876C487.338,667.18,467.615,662.478,464.656,671.017z"/>
	<path style="fill:#E2474B;" d="M543.482,686.658c0,0-29.712-12.162-23.402-24.344c6.31-12.182,6.608-10.983,6.608-10.983
		l46.925,28.237l-7.577,14.213C566.037,693.782,550.626,680.531,543.482,686.658z"/>
	
		<rect x="548.44" y="637.839" transform="matrix(0.5156 -0.8568 0.8568 0.5156 -304.4667 794.0283)" style="fill:#0E2549;" width="3.157" height="56.902"/>
	
		<rect x="458.489" y="624.481" transform="matrix(0.0135 -0.9999 0.9999 0.0135 -197.9324 1102.974)" style="fill:#0E2549;" width="3.031" height="54.631"/>
	<path style="fill:#0E2549;" d="M532.559,695.482c0,0-41.191,63.725-40.706,72.448c0.484,8.723,39.253,21.807,39.253,21.807
		l136.657-24.473c0,0,4.359-23.896-26.413-24.622c-21.973-0.519-109.76,22.2-109.76,22.2l28.591-49.914L532.559,695.482z"/>
	<path style="fill:#0E2549;" d="M676.485,747.819c0,0-19.869-10.177-48.46-6.3c-28.591,3.877-106.127,32.953-113.397,28.591
		c-7.269-4.362-16.476-78.99-16.476-78.99l-37.314,4.361c0,0,11.838,101.349,30.206,106.922l190.771,0.174L676.485,747.819z"/>
	<path style="fill:#0E2549;" d="M786.763,675.469c0,0,22.586-11.272,10.699-37.335c-13.359-29.29-74.477-31.539-83.001,27.226
		c-2.44,16.821-16.852,20.38-19.588,21c-24.588,5.569-29.441,27.882-24.095,39.176c9.787,20.676,74.025,16.582,105.095-5.118
		C792.347,708.913,786.763,675.469,786.763,675.469z"/>
	<path style="fill:#FFFFFF;" d="M743.561,664.306c0,0-5.67,31.856-7.241,33.251c-5.378,4.776-8.197,6.379-11.152,6.516
		c-1.131,0.052-4.653,18.741,0.713,27.821c8.651,14.64,28.377,22.402,28.377,22.402l28.26-25.012l-7.895-11.564
		c0,0-6.697-5.447-9.253-9.594c-2.557-4.148,2.91-36.624,2.91-36.624L743.561,664.306z"/>
	<path style="fill:#0E2549;" d="M754.564,756.03l-0.855-0.336c-0.825-0.324-20.307-8.123-29.119-23.035
		c-5.341-9.039-2.564-26.147-1.024-28.998c0.465-0.86,1.09-1.065,1.533-1.086c2.562-0.118,5.215-1.701,10.11-6.036
		c1.074-2.043,4.325-18.159,6.877-32.496l0.292-1.645l27.603,8.038l-0.222,1.316c-2.64,15.691-4.526,33.292-3.111,35.588
		c2.392,3.881,8.857,9.165,8.923,9.217l0.169,0.138l8.764,12.837L754.564,756.03z M726.016,705.507
		c-1.19,3.201-3.215,18.225,1.157,25.625c7.287,12.332,23.001,19.76,26.798,21.417l26.563-23.509l-7.028-10.295
		c-1.103-0.912-6.957-5.846-9.413-9.831c-2.542-4.123,1.234-28.696,2.489-36.342l-21.837-6.359
		c-3.663,20.421-6.161,31.341-7.428,32.467C732.123,703.292,729.126,705.128,726.016,705.507z"/>
	<path style="fill:#FFFFFF;" d="M743.737,671.153c-2.089-4.053-5.425-11.754-3.156-16.187c2.269-4.433,6.941-1.158,8.071,0.373
		c0.752,1.02,12.929-24.223,12.929-24.223l34.953,16.223c0,0-6.84,25.146-14.74,36.473c-7.932,11.375-15.196,11.409-24.181,6.908
		c-4.451-2.229-7.337-5.075-9.269-7.959L743.737,671.153z"/>
	<path style="fill:#0E2549;" d="M767.449,695c-3.173,0-6.625-0.993-10.508-2.938c-4.167-2.088-7.479-4.936-9.842-8.466
		c-0.461-0.688-0.277-1.62,0.412-2.081c0.687-0.462,1.62-0.277,2.081,0.412c2.072,3.093,4.997,5.6,8.694,7.452
		c8.143,4.08,14.71,4.428,22.279-6.424c6.681-9.58,12.704-29.655,14.179-34.793L762.289,633.1
		c-11.409,23.575-12.482,23.674-13.432,23.764l-0.843,0.078l-0.569-0.711c-0.543-0.736-2.381-2.112-3.804-1.99
		c-0.449,0.036-1.117,0.222-1.725,1.41c-1.419,2.773-0.271,8.173,3.154,14.815c0.379,0.737,0.09,1.641-0.646,2.021
		c-0.737,0.381-1.641,0.089-2.021-0.646c-2.78-5.393-5.584-12.817-3.158-17.557c1.19-2.325,2.915-2.933,4.152-3.034
		c2.015-0.159,3.914,0.87,5.181,1.905c2.035-3.292,7.163-13.385,11.652-22.689l0.642-1.331l37.441,17.377l-0.332,1.221
		c-0.282,1.037-7,25.528-14.957,36.938C778.162,691.644,773.278,695,767.449,695z"/>
	<path style="fill:#0E2549;" d="M770.61,659.203c-0.318,0-0.638-0.101-0.911-0.308c-0.056-0.043-3.678-2.761-7.023-2.6
		c-0.841,0.038-1.529-0.601-1.569-1.429c-0.038-0.828,0.602-1.53,1.429-1.568c4.478-0.216,8.804,3.075,8.987,3.214
		c0.657,0.504,0.782,1.445,0.278,2.103C771.506,659.001,771.06,659.203,770.61,659.203z"/>
	<path style="fill:#0E2549;" d="M786.163,667.77c-0.449,0-0.894-0.201-1.188-0.583c-0.041-0.052-2.036-2.557-4.858-2.933
		c-0.82-0.109-1.397-0.864-1.288-1.685c0.11-0.821,0.865-1.395,1.685-1.289c4.086,0.544,6.728,3.933,6.839,4.077
		c0.504,0.658,0.38,1.599-0.277,2.103C786.803,667.669,786.482,667.77,786.163,667.77z"/>
	<path style="fill:#0E2549;" d="M791.272,668.863c0,0-2.243-12.356-2.69-20.2c-0.047-0.831-39.175,5.015-39.175,5.015l8.594-27.78
		l40.95,17.09L791.272,668.863z"/>
	<path style="fill:#0E2549;" d="M773.181,681.816c0.258,0.899-3.311,2.339-5.691,1.173c-5.983-2.93-5.077-6.871-4.059-5.541
		c0.384,0.501,1.681,2.03,4.746,3.265C772.109,682.297,772.889,680.795,773.181,681.816z"/>
	<path style="fill:#0E2549;" d="M781.092,672.364c-0.151,0-0.304-0.023-0.455-0.07c-0.79-0.251-1.227-1.095-0.976-1.885l0.44-1.386
		c0.251-0.789,1.098-1.225,1.884-0.975c0.79,0.251,1.227,1.095,0.976,1.884l-0.44,1.386
		C782.318,671.956,781.728,672.364,781.092,672.364z"/>
	<path style="fill:#0E2549;" d="M764.725,664.509c-0.151,0-0.304-0.023-0.455-0.071c-0.789-0.251-1.226-1.094-0.975-1.884
		l0.441-1.386c0.25-0.79,1.096-1.226,1.884-0.975c0.79,0.251,1.226,1.094,0.975,1.884l-0.441,1.386
		C765.951,664.102,765.36,664.509,764.725,664.509z"/>
	<path style="fill:#0E2549;" d="M771.627,677.732c-1.35,0-2.576-0.311-2.801-0.4c-0.769-0.307-1.144-1.18-0.836-1.95
		c0.307-0.769,1.179-1.144,1.95-0.836c0.527,0.164,2.059,0.288,2.644,0.086c-0.009-5.215,0.178-5.608,0.314-5.896
		c0.355-0.748,1.252-1.068,1.997-0.714c0.661,0.313,0.987,1.045,0.812,1.728c-0.026,0.184-0.133,1.172-0.123,5.072
		c0.003,0.919-0.415,1.71-1.176,2.227C773.637,677.571,772.6,677.732,771.627,677.732z"/>
	<path style="fill:#EAB7C2;" d="M709.922,700.813c0,0-32.711,12.6-39.979,51.852l-2.181,12.6l39.516,0.484l-26.609,38.489
		l136.839,1.449l-28.797-44.811l28.797-4.515c0,0-18.557-51.789-35.622-51.671c-10.202,0.071-22.534,10.177-31.983,8.723
		C740.452,711.958,720.547,694.649,709.922,700.813z"/>
	<path style="fill:#1B2746;" d="M820.274,807.216l-142.445-1.508l26.613-38.493l-38.458-0.472l2.481-14.334
		c7.119-38.442,38.602-52.045,40.8-52.948c7.562-4.286,18.504,1.614,28.163,6.819c4.933,2.659,9.592,5.171,12.703,5.649
		c4.593,0.705,10.097-1.641,15.922-4.125c5.278-2.252,10.736-4.58,15.823-4.615c0.021,0,0.044,0,0.065,0
		c17.903,0,36.208,50.513,36.979,52.665l0.612,1.707L791.217,762L820.274,807.216z M683.509,802.767l131.234,1.39l-28.538-44.408
		l29.268-4.588c-5.645-15.134-20.914-48.972-33.528-48.972c-0.017,0-0.032,0-0.049,0c-4.484,0.031-9.661,2.239-14.667,4.375
		c-5.956,2.54-12.116,5.165-17.555,4.33c-3.622-0.557-8.278-3.067-13.67-5.974c-9.008-4.855-19.217-10.356-25.329-6.81l-0.212,0.102
		c-0.32,0.124-32.023,12.804-39.045,50.726l-1.878,10.848l40.575,0.498L683.509,802.767z"/>
	<path style="fill:#FFFFFF;" d="M678.851,751.211c0,0-3.429,47.415,2.743,49.596c6.172,2.181,14.279-13.869,16.524-15.647
		c1.946-1.542,8.241-27.648,8.241-27.648L678.851,751.211z"/>
	<path style="fill:#0E2549;" d="M682.778,802.511c-0.563,0-1.125-0.092-1.684-0.289c-2.406-0.85-4.844-4.727-4.686-27.04
		c0.085-12.036,0.938-23.959,0.947-24.078l0.126-1.744l30.693,7.029l-0.356,1.475c-2.396,9.938-6.722,26.852-8.769,28.474
		c-0.423,0.336-1.591,2.051-2.621,3.565C692.94,795.026,687.846,802.511,682.778,802.511z M680.225,753.065
		c-1.629,24.056-0.802,45.077,1.873,46.329c3.426,1.213,9.113-7.16,11.85-11.182c1.564-2.297,2.436-3.556,3.169-4.172
		c1.152-1.532,4.592-13.809,7.426-25.407L680.225,753.065z M697.093,784.071L697.093,784.071L697.093,784.071z M697.186,783.984
		L697.186,783.984L697.186,783.984z"/>
	<path style="fill:#FFFFFF;" d="M812.101,748.655c0,0,12.122,50.803,5.95,52.984c-6.172,2.181-24.159-10.206-22.33-11.902
		c1.829-1.696-4.929-35.44-4.929-35.44L812.101,748.655z"/>
	<path style="fill:#0E2549;" d="M816.478,803.367c-7.06,0-19.854-8.443-21.935-11.884c-0.775-1.283-0.392-2.166-0.063-2.602
		c0.566-2.51-2.152-19.269-5.161-34.289l-0.277-1.383l24.16-6.398l0.357,1.496c0.03,0.128,3.067,12.896,5.308,25.766
		c4.162,23.901,2.307,28.053-0.318,28.981C817.941,803.268,817.244,803.367,816.478,803.367z M797.194,790.095
		c1.784,2.881,15.789,11.747,20.357,10.129c0.213-0.185,2.414-2.723-1.787-26.484c-1.753-9.914-3.935-19.611-4.773-23.24
		l-18.453,4.886C797.809,781.923,797.762,788.292,797.194,790.095z"/>
	<polygon style="fill:#EAB7C2;" points="673.387,745.213 669.87,763.816 705.637,764.228 711.763,744.675 	"/>
	<rect x="737.626" y="736.69" style="fill:#E2474B;" width="23.934" height="50.259"/>
	<path style="fill:#1B2746;" d="M763.061,788.448h-26.935V735.19h26.935V788.448z M739.126,785.448h20.935V738.19h-20.935V785.448z"
		/>
	<path style="fill:#FFFFFF;" d="M817.928,799.645c-2.826,13.109-42.736-25.302-42.736-25.302S760.397,780.8,758.385,780
		c-4.17-1.658-10.899-16.19-9.991-19.177c0.908-2.987,13.039-3.295,13.039-3.295s0.227-7.032,0.128-8.701
		c-0.021-0.372,3.151-0.121,4.208,0.546c1.412,0.89,3.877,5.103,3.877,5.103l3.015,4.425l38.124,16.333
		C810.785,775.235,820.709,786.74,817.928,799.645z"/>
	<path style="fill:#0E2549;" d="M815.219,803.804c-11.345,0-35.168-22.62-40.357-27.683c-6.839,2.952-14.984,6.084-17.031,5.273
		c-4.848-1.928-12.064-17.086-10.872-21.008c0.967-3.183,8.032-4.077,13.016-4.307c0.068-2.393,0.151-6.098,0.089-7.164
		l-0.053-0.913l0.842-0.544c1.139-0.673,4.57-0.076,5.716,0.646c1.576,0.993,3.692,4.456,4.346,5.571l2.739,4.02l37.723,16.162
		c0.761,0.326,1.114,1.208,0.788,1.969c-0.326,0.762-1.207,1.116-1.97,0.789l-38.527-16.507l-3.316-4.874
		c-1.103-1.884-2.726-4.179-3.383-4.593c-0.304-0.191-1.16-0.361-1.884-0.441c-0.002,2.625-0.146,7.141-0.153,7.376l-0.045,1.415
		l-1.415,0.037c-5.52,0.142-11.074,1.218-11.652,2.258c-0.595,2.223,5.544,15.723,9.038,17.286
		c1.573,0.099,9.342-2.813,15.734-5.602l0.933-0.408l0.723,0.715c8.162,8.074,31.182,28.727,39.631,27.482
		c0.961-0.144,1.613-0.596,2.057-1.422c0.392-0.73,1.3-1.004,2.031-0.613c0.73,0.392,1.004,1.301,0.613,2.031
		c-0.89,1.659-2.361,2.686-4.254,2.97C815.971,803.778,815.601,803.804,815.219,803.804z"/>
	<path style="fill:#FFFFFF;" d="M686.353,778.69l40.44-22.309l3.081-4.409c0,0,2.516-4.202,3.965-5.082
		c1.084-0.659,3.808-0.926,3.787-0.553c-0.092,1.669,0.03,8.872,0.03,8.872s13.175,0.276,14.125,3.273
		c0.95,2.997-5.902,17.499-10.186,19.128c-2.067,0.787-17.329-5.787-17.329-5.787s-36.316,36.779-42.02,27.219L686.353,778.69z"/>
	<path style="fill:#0E2549;" d="M683.298,802.452c-0.283,0-0.553-0.017-0.814-0.051c-1.548-0.205-2.766-0.983-3.521-2.249
		c-0.424-0.712-0.192-1.633,0.519-2.057c0.713-0.424,1.633-0.191,2.057,0.52c0.191,0.32,0.517,0.703,1.339,0.812
		c7.75,1.035,31.752-20.355,40.345-28.681l0.719-0.696l0.918,0.396c6.638,2.859,14.69,5.85,16.277,5.732
		c3.57-1.515,9.838-14.987,9.213-17.246c-0.647-1.017-6.722-2.099-12.726-2.225l-1.444-0.03l-0.025-1.444
		c-0.004-0.239-0.081-4.824-0.061-7.484c-0.56,0.088-1.177,0.239-1.477,0.422c-0.697,0.424-2.337,2.703-3.457,4.571l-0.057,0.088
		l-3.281,4.694l-40.745,22.477c-0.726,0.4-1.638,0.136-2.038-0.589c-0.4-0.726-0.136-1.638,0.589-2.038l40.134-22.14l2.852-4.079
		c0.669-1.113,2.83-4.566,4.445-5.548c1.066-0.647,4.118-1.34,5.28-0.643c0.516,0.309,0.816,0.866,0.783,1.454
		c-0.063,1.152-0.019,5.158,0.011,7.333c5.377,0.211,13.063,1.079,14.077,4.277c1.25,3.942-6.101,19.088-11.083,20.983
		c-2.082,0.798-10.49-2.415-17.537-5.419C719.198,778.758,693.879,802.452,683.298,802.452z M741.186,776.174L741.186,776.174
		L741.186,776.174z"/>
	<polygon style="fill:#EAB7C2;" points="781.312,742.609 786.063,760.037 815.519,755.125 809.875,741.489 	"/>
	<path style="fill:#0E2549;" d="M706.361,766.815c-0.064,0-0.13-0.004-0.196-0.012c-0.821-0.108-1.4-0.861-1.292-1.683l2.972-22.705
		c0.107-0.822,0.859-1.4,1.682-1.293c0.821,0.107,1.4,0.86,1.292,1.682l-2.972,22.705
		C707.748,766.265,707.103,766.815,706.361,766.815z"/>
	<path style="fill:#0E2549;" d="M783.455,763.534l-4.608-21.817c-0.171-0.81,0.347-1.606,1.158-1.777
		c0.813-0.169,1.606,0.347,1.777,1.157l4.015,19.007l30.863-5.128c0.82-0.134,1.59,0.417,1.726,1.233
		c0.136,0.817-0.417,1.59-1.233,1.726L783.455,763.534z"/>
</g>
<g>
	<polygon style="fill:#E2474B;" points="849.382,898.441 849.382,802.582 542.56,802.582 497.679,802.582 454.531,802.582 
		454.531,1521.066 542.56,1521.066 542.56,1218.645 801.923,1218.645 801.923,1122.785 542.56,1122.785 542.56,898.441 	"/>
	<path style="fill:#E2474B;" d="M1253.427,1521.066h94.946l-231.308-718.484h-75.092l-231.308,718.484h94.946l47.291-157.625
		h253.229L1253.427,1521.066z M981.668,1267.566l97.845-326.125l97.853,326.125H981.668z"/>
	<path style="fill:#E2474B;" d="M1856.055,1458.451l-80.97-72.873c15.428-37.728,23.153-80.795,23.153-129.236v-203.578
		c0-52.703-9.143-99.063-27.414-139.094s-44.089-71-77.467-92.906c-33.377-21.906-71.926-32.859-115.646-32.859
		c-43.734,0-82.283,10.953-115.661,32.859c-33.377,21.906-59.194,52.875-77.452,92.906c-18.271,40.031-27.4,86.391-27.4,139.094
		v203.578c0,52.719,9.129,99.078,27.4,139.109c18.258,40.031,44.075,70.984,77.452,92.891
		c33.378,21.906,71.927,32.859,115.661,32.859c43.721,0,82.27-10.953,115.646-32.859c14.322-9.399,27.241-20.477,38.78-33.21
		l78.734,66.287L1856.055,1458.451z M1646.104,1401.873c-19.705,13.344-42.507,20.016-68.393,20.016
		c-25.899,0-48.701-6.672-68.406-20.016c-19.704-13.344-34.96-32.281-45.74-56.828c-10.793-24.531-16.184-52.953-16.184-85.234
		v-210.516c0-32.281,5.391-60.688,16.184-85.234c10.78-24.531,26.036-43.484,45.74-56.828
		c19.705-13.344,42.507-20.016,68.406-20.016c25.886,0,48.688,6.672,68.393,20.016c19.704,13.344,34.96,32.297,45.753,56.828
		c10.78,24.547,16.185,52.953,16.185,85.234v210.516c0,21.373-11.169,96.432-47.608,130.636
		C1655.965,1394.641,1651.177,1398.438,1646.104,1401.873z"/>
</g>
<g>
	<path style="fill:#EAB7C2;" d="M988.944,558.952c-66.819,0-120.987,35.106-120.987,78.41c0,11.646,3.923,22.697,10.951,32.634
		l-25.564,49.316l53.447-24.396c21.576,12.942,50.437,20.855,82.154,20.855c66.819,0,120.987-35.105,120.987-78.41
		C1109.932,594.058,1055.764,558.952,988.944,558.952z"/>
	<path style="fill:#1B2746;" d="M850.01,722.483l27.149-52.372c-7.102-10.317-10.702-21.33-10.702-32.748
		c0-44.063,54.948-79.91,122.487-79.91c67.54,0,122.487,35.847,122.487,79.91c0,44.062-54.947,79.91-122.487,79.91
		c-30.518,0-59.687-7.333-82.247-20.665L850.01,722.483z M988.944,560.452c-65.886,0-119.487,34.502-119.487,76.91
		c0,11.063,3.592,21.752,10.676,31.767l0.527,0.746l-23.984,46.267l50.208-22.918l0.677,0.406
		c22.191,13.311,51.094,20.642,81.383,20.642c65.886,0,119.487-34.502,119.487-76.91
		C1108.432,594.954,1054.83,560.452,988.944,560.452z"/>
	<path style="fill:#1B2746;" d="M1065.246,607.761H913.111c-0.829,0-1.5-0.672-1.5-1.5c0-0.829,0.671-1.5,1.5-1.5h152.135
		c0.828,0,1.5,0.671,1.5,1.5C1066.746,607.089,1066.074,607.761,1065.246,607.761z"/>
	<path style="fill:#1B2746;" d="M1065.246,629.869H913.111c-0.829,0-1.5-0.672-1.5-1.5c0-0.829,0.671-1.5,1.5-1.5h152.135
		c0.828,0,1.5,0.671,1.5,1.5C1066.746,629.197,1066.074,629.869,1065.246,629.869z"/>
	<path style="fill:#1B2746;" d="M1005.947,651.977h-92.837c-0.829,0-1.5-0.672-1.5-1.5c0-0.829,0.671-1.5,1.5-1.5h92.837
		c0.828,0,1.5,0.671,1.5,1.5C1007.447,651.306,1006.775,651.977,1005.947,651.977z"/>
</g>
<g>
	<path style="fill:#EAB7C2;" d="M192.82,923.136c52.901,0,95.786,27.793,95.786,62.077c0,9.22-3.106,17.969-8.67,25.836
		l20.24,39.044l-42.314-19.314c-17.081,10.246-39.931,16.512-65.042,16.512c-52.901,0-95.786-27.793-95.786-62.078
		C97.034,950.929,139.919,923.136,192.82,923.136z"/>
	<path style="fill:#1B2746;" d="M303.508,1053.264l-45.556-20.794c-17.887,10.529-40.98,16.32-65.133,16.32
		c-53.643,0-97.286-28.521-97.286-63.577c0-35.056,43.642-63.577,97.286-63.577c53.644,0,97.286,28.52,97.286,63.577
		c0,9.048-2.833,17.773-8.422,25.95L303.508,1053.264z M257.767,1029.087l39.076,17.837l-18.659-35.994l0.527-0.746
		c5.57-7.876,8.395-16.277,8.395-24.971c0-33.402-42.296-60.577-94.286-60.577c-51.989,0-94.286,27.175-94.286,60.577
		c0,33.402,42.296,60.577,94.286,60.577c23.925,0,46.749-5.788,64.27-16.297L257.767,1029.087z"/>
	<path style="fill:#1B2746;" d="M252.857,962.09H132.411c-0.829,0-1.5-0.671-1.5-1.5c0-0.829,0.671-1.5,1.5-1.5h120.446
		c0.829,0,1.5,0.671,1.5,1.5C254.357,961.419,253.686,962.09,252.857,962.09z"/>
	<path style="fill:#1B2746;" d="M252.857,979.594H132.411c-0.829,0-1.5-0.672-1.5-1.5c0-0.829,0.671-1.5,1.5-1.5h120.446
		c0.829,0,1.5,0.671,1.5,1.5C254.357,978.922,253.686,979.594,252.857,979.594z"/>
	<path style="fill:#1B2746;" d="M205.91,997.757h-73.499c-0.829,0-1.5-0.672-1.5-1.5c0-0.828,0.671-1.5,1.5-1.5h73.499
		c0.829,0,1.5,0.672,1.5,1.5C207.41,997.085,206.739,997.757,205.91,997.757z"/>
</g>
<g>
	<path style="fill:#EAB7C2;" d="M929.833,1151.94c-52.901,0-95.786,27.793-95.786,62.077c0,9.22,3.105,17.969,8.669,25.836
		l-20.24,39.045l42.314-19.314c17.082,10.245,39.931,16.511,65.042,16.511c52.901,0,95.786-27.793,95.786-62.077
		S982.734,1151.94,929.833,1151.94z"/>
	<path style="fill:#1B2746;" d="M819.144,1282.067l21.825-42.101c-5.589-8.177-8.422-16.902-8.422-25.949
		c0-35.057,43.642-63.577,97.286-63.577s97.286,28.521,97.286,63.577s-43.643,63.577-97.286,63.577
		c-24.152,0-47.245-5.792-65.133-16.321L819.144,1282.067z M929.833,1153.44c-51.989,0-94.286,27.175-94.286,60.577
		c0,8.692,2.824,17.094,8.394,24.97l0.528,0.746l-18.659,35.994l39.076-17.837l0.677,0.406c17.521,10.51,40.346,16.298,64.27,16.298
		c51.99,0,94.286-27.175,94.286-60.577S981.823,1153.44,929.833,1153.44z"/>
	<path style="fill:#1B2746;" d="M990.241,1190.895H869.795c-0.828,0-1.5-0.672-1.5-1.5s0.672-1.5,1.5-1.5h120.446
		c0.829,0,1.5,0.672,1.5,1.5S991.07,1190.895,990.241,1190.895z"/>
	<path style="fill:#1B2746;" d="M990.241,1208.397H869.795c-0.828,0-1.5-0.672-1.5-1.5s0.672-1.5,1.5-1.5h120.446
		c0.829,0,1.5,0.672,1.5,1.5S991.07,1208.397,990.241,1208.397z"/>
	<path style="fill:#1B2746;" d="M943.294,1226.561h-73.5c-0.828,0-1.5-0.672-1.5-1.5s0.672-1.5,1.5-1.5h73.5
		c0.829,0,1.5,0.672,1.5,1.5S944.123,1226.561,943.294,1226.561z"/>
</g>
<g>
	<path style="fill:#EAB7C2;" d="M1349.89,1024.323c66.819,0,120.987,35.105,120.987,78.41c0,11.646-3.923,22.697-10.951,32.634
		l25.565,49.316l-53.447-24.396c-21.576,12.941-50.437,20.854-82.154,20.854c-66.819,0-120.987-35.104-120.987-78.409
		S1283.07,1024.323,1349.89,1024.323z"/>
	<path style="fill:#1B2746;" d="M1488.824,1187.854l-56.688-25.875c-22.558,13.331-51.727,20.664-82.246,20.664
		c-67.539,0-122.486-35.847-122.486-79.909s54.947-79.91,122.486-79.91c67.54,0,122.487,35.848,122.487,79.91
		c0,11.419-3.6,22.433-10.701,32.748L1488.824,1187.854z M1431.949,1158.596l50.209,22.918l-23.983-46.267l0.527-0.746
		c7.083-10.016,10.675-20.704,10.675-31.768c0-42.408-53.602-76.91-119.487-76.91c-65.885,0-119.486,34.502-119.486,76.91
		s53.602,76.909,119.486,76.909c30.29,0,59.192-7.33,81.383-20.641L1431.949,1158.596z"/>
	<path style="fill:#1B2746;" d="M1425.724,1073.132h-152.136c-0.828,0-1.5-0.672-1.5-1.5s0.672-1.5,1.5-1.5h152.136
		c0.828,0,1.5,0.672,1.5,1.5S1426.552,1073.132,1425.724,1073.132z"/>
	<path style="fill:#1B2746;" d="M1425.724,1095.24h-152.136c-0.828,0-1.5-0.672-1.5-1.5s0.672-1.5,1.5-1.5h152.136
		c0.828,0,1.5,0.672,1.5,1.5S1426.552,1095.24,1425.724,1095.24z"/>
	<path style="fill:#1B2746;" d="M1329.578,1117.349h-55.99c-0.828,0-1.5-0.672-1.5-1.5s0.672-1.5,1.5-1.5h55.99
		c0.828,0,1.5,0.672,1.5,1.5S1330.406,1117.349,1329.578,1117.349z"/>
</g>
<g>
	<polygon style="fill:#FFFFFF;" points="1432.464,1467.267 1422.468,1499.65 1447.313,1499.505 1458.323,1470.892 	"/>
	<path style="fill:#0E2549;" d="M1420.432,1501.161l10.976-35.558l28.994,4.064l-12.056,31.331L1420.432,1501.161z
		 M1433.521,1468.93l-9.017,29.208l21.777-0.127l9.964-25.896L1433.521,1468.93z"/>
	<path style="fill:#E2474B;" d="M1420.995,1497.014c0,0-38.28,12.398-39.544,22.437l68.768-0.402l-0.13-22.204L1420.995,1497.014z"
		/>
	<polygon style="fill:#0E2549;" points="1452.343,1514.844 1452.379,1520.992 1379.313,1521.419 1379.275,1514.825 	"/>
	<path style="fill:#0E2549;" d="M1434.095,1514.364c-0.824,0-1.495-0.666-1.5-1.491l-0.078-13.323
		c-0.005-0.828,0.663-1.504,1.491-1.509c0.003,0,0.006,0,0.009,0c0.824,0,1.495,0.666,1.5,1.491l0.078,13.323
		c0.005,0.828-0.663,1.504-1.491,1.509C1434.101,1514.364,1434.098,1514.364,1434.095,1514.364z"/>
	<path style="fill:#0E2549;" d="M1586.83,1360.508c0,0-82.773,13.735-96.781,21.574c-26.172,14.645-68.499,89.572-68.499,89.572
		l41.676,8.824l52.446-63.53c0,0,50.091,16.778,95.386,2.851c30.03-9.233,59.473-35.676,59.473-35.676l-47.532-70.014
		c0,0-50.198-39.457-94.832-40.812c-8.343-0.253-65.432,65.253-65.81,67.651c-1.401,8.905,18.162,31.151,18.162,31.151
		l57.575-41.388l19.327,39.976L1586.83,1360.508z"/>
	<path style="fill:#FFFFFF;" d="M1654.332,1179.435c0,0,1.301,28.536-1.081,31.816c-2.383,3.28-18.425,15.4-18.425,15.4
		l28.409,62.299l49.112-4.656l-4.307-50.285c0,0-14.796-18.275-16.142-22.027c-1.861-5.192-1.815-32.914-1.815-32.914
		L1654.332,1179.435z"/>
	<path style="fill:#0E2549;" d="M1662.313,1290.543l-29.351-64.363l0.959-0.726c4.413-3.333,16.269-12.542,18.115-15.085
		c1.276-1.849,1.408-17.462,0.797-30.867c-0.038-0.827,0.603-1.529,1.43-1.566c0.847-0.037,1.529,0.603,1.566,1.43
		c0.312,6.817,1.132,29.329-1.365,32.768c-2.181,3.001-14.06,12.157-17.776,14.988l27.469,60.234l46.569-4.415l-4.141-48.347
		c-2.471-3.062-14.771-18.407-16.099-22.105c-1.895-5.287-1.908-30.56-1.903-33.425c0.001-0.827,0.673-1.497,1.5-1.497
		c0.001,0,0.002,0,0.003,0c0.828,0.001,1.498,0.674,1.497,1.503c-0.013,7.638,0.273,28.35,1.728,32.406
		c0.924,2.576,10.012,14.322,15.896,21.588l0.289,0.358l4.473,52.226L1662.313,1290.543z"/>
	<path style="fill:#0E2549;" d="M1654.977,1125.529c-5.94,1.714-20.425,5.692-18.512,16.523c2.182,12.354,7.072,27.87,9.791,36.016
		c1.073,3.214,4.333,5.154,7.664,4.566l37.301-6.588c3.418-0.604,5.838-3.678,5.626-7.148c-0.714-11.684-2.44-36.385-4.443-39.801
		C1685.586,1117.474,1664.383,1122.815,1654.977,1125.529z"/>
	<path style="fill:#FFFFFF;" d="M1689.759,1184.627c1.645-2.449,0.99-10.87-0.449-20.354c-0.041-0.274,0.062-0.548,0.266-0.724
		c2.191-1.891,5.184-5.639,4.254-10.306c-0.806-4.044-3.589-2.674-5.663-0.961c-0.37,0.306-0.924,0.089-1.018-0.397
		c-2.193-11.356-4.583-21.23-4.583-21.23l-44.326,7.828c0,0,1.881,10.141,4.317,21.454c0.109,0.508,6.769,27.345,8.268,29.615
		c0.816,1.236,2.123,2.152,3.775,2.794c0,0,3.256,1.823,19.365-1.021L1689.759,1184.627z"/>
	<path style="fill:#0E2549;" d="M1659.388,1194.423c-3.455,0-4.891-0.469-5.391-0.702c-1.989-0.783-3.478-1.907-4.425-3.343
		c-1.712-2.592-8.427-29.869-8.482-30.126c-2.413-11.205-4.306-21.395-4.324-21.496l-0.276-1.487l47.203-8.336l0.331,1.369
		c0.022,0.095,2.236,9.266,4.338,19.967c1.653-1.091,3.117-1.418,4.359-0.977c1.322,0.471,2.19,1.702,2.579,3.658
		c1.113,5.582-2.523,9.726-4.45,11.474c2.336,15.574,1.21,19.467,0.154,21.039c-0.462,0.689-1.395,0.872-2.081,0.409
		c-0.688-0.462-0.871-1.394-0.409-2.081c0.55-0.818,1.583-4.337-0.688-19.295c-0.117-0.787,0.17-1.564,0.768-2.081
		c1.421-1.227,4.629-4.544,3.765-8.879c-0.202-1.012-0.509-1.369-0.644-1.417c-0.236-0.091-1.091,0.078-2.594,1.319
		c-0.581,0.479-1.352,0.613-2.058,0.359c-0.711-0.255-1.243-0.879-1.388-1.629c-1.69-8.749-3.516-16.695-4.243-19.791l-41.438,7.317
		c0.612,3.226,2.164,11.271,4.028,19.926c0.436,1.927,6.759,27.024,8.055,29.107c0.605,0.917,1.637,1.664,3.064,2.219l0.189,0.09
		c0.068,0.023,3.555,1.428,18.372-1.19c0.81-0.143,1.594,0.401,1.738,1.217c0.144,0.815-0.401,1.594-1.217,1.738
		C1667.161,1194.049,1662.471,1194.422,1659.388,1194.423z"/>
	<path style="fill:#0E2549;" d="M1671.721,1160.199c-0.685,0-1.303-0.471-1.462-1.166l-0.207-0.907
		c-0.184-0.808,0.321-1.612,1.129-1.797c0.81-0.183,1.612,0.321,1.797,1.129l0.207,0.907c0.184,0.808-0.321,1.612-1.129,1.797
		C1671.943,1160.188,1671.831,1160.199,1671.721,1160.199z"/>
	<path style="fill:#0E2549;" d="M1652.65,1163.519c-0.708,0-1.338-0.504-1.473-1.225l-0.201-1.078
		c-0.152-0.814,0.385-1.598,1.199-1.75c0.808-0.153,1.598,0.385,1.75,1.199l0.201,1.078c0.152,0.814-0.385,1.598-1.199,1.75
		C1652.835,1163.511,1652.742,1163.519,1652.65,1163.519z"/>
	<path style="fill:#0E2549;" d="M1677.146,1152.734c-0.117,0-0.236-0.014-0.355-0.043c-5.965-1.451-10.412-0.753-10.456-0.745
		c-0.821,0.139-1.59-0.421-1.723-1.238c-0.134-0.818,0.421-1.589,1.238-1.723c0.207-0.034,5.1-0.803,11.649,0.792
		c0.805,0.195,1.299,1.007,1.103,1.812C1678.436,1152.274,1677.821,1152.734,1677.146,1152.734z"/>
	<path style="fill:#0E2549;" d="M1661.69,1173.249c-0.068,0-0.138-0.005-0.207-0.014c-2.001-0.277-5.467-1.033-6.196-2.987
		c-0.325-0.871-0.186-2.461,0.499-7.873c0.336-2.656,0.884-6.984,0.761-8.292c-1.304-0.395-6.173,0.634-8.8,3.169
		c-0.595,0.574-1.544,0.559-2.121-0.039c-0.574-0.596-0.558-1.546,0.039-2.121c3.064-2.957,8.686-4.541,11.479-3.937
		c1.382,0.301,1.945,1.06,2.174,1.644c0.482,1.227,0.201,3.975-0.555,9.952c-0.294,2.317-0.688,5.435-0.646,6.397
		c0.508,0.384,2.246,0.903,3.776,1.114c0.821,0.114,1.395,0.871,1.281,1.691C1663.07,1172.705,1662.428,1173.249,1661.69,1173.249z"
		/>
	<path style="fill:#FFFFFF;" d="M1548.029,1283.299c-5.98-1.398-10.576-6.769-19.248-4.127c-4.188,1.276-13.302-4.113-7.846-7.36
		c5.455-3.247,13.331-4.914,13.331-4.914l14.322,4.857l11.128-1.464l7.601,20.52
		C1567.317,1290.811,1553.994,1284.693,1548.029,1283.299z"/>
	<path style="fill:#0E2549;" d="M1569.981,1293.683l-3.29-1.51c-0.132-0.061-13.255-6.069-19.004-7.413l0,0
		c-2.058-0.481-3.939-1.385-5.759-2.258c-3.78-1.813-7.351-3.527-12.71-1.896c-3.632,1.106-9.655-1.524-11.125-4.849
		c-0.877-1.983-0.102-3.941,2.074-5.236c5.604-3.335,13.456-5.021,13.788-5.092l0.402-0.085l14.381,4.876l11.969-1.573
		L1569.981,1293.683z M1548.371,1281.838c4.247,0.993,11.924,4.226,16.3,6.146l-5.945-16.049l-10.287,1.353l-14.254-4.833
		c-1.631,0.379-7.985,1.97-12.482,4.646c-1.19,0.709-0.986,1.17-0.865,1.445c0.858,1.941,5.352,3.844,7.507,3.192
		c6.479-1.977,10.943,0.169,14.883,2.06C1544.978,1280.638,1546.632,1281.432,1548.371,1281.838L1548.371,1281.838z"/>
	<path style="fill:#EAB7C2;" d="M1697.886,1212.762c-6.36-1.574-29.334,17.589-41.721,14.083c-3.749-1.062-6.851-9.119-8.18-13.203
		c-5.979-18.364-37.862,58.172-48.659,60.63l-45.13-8.254l-5.06,23.558l41.084,18.544c0,0-4.901,4.146-6.469,10.444
		c-0.446,1.792,72.492,79.053,73.944,77.915C1747.696,1325.89,1726.905,1219.945,1697.886,1212.762z"/>
	<path style="fill:#1B2746;" d="M1657.674,1397.988c-0.328,0-0.721-0.102-1.174-0.396c-3.312-2.146-23.305-22.83-39.42-39.891
		c-9.181-9.72-17.687-18.876-23.952-25.783c-11.179-12.323-11.077-12.731-10.831-13.718c1.088-4.372,3.631-7.746,5.323-9.611
		l-40.204-18.146l5.619-26.165l46.214,8.453c4.126-1.503,13.243-17.231,20.6-29.921c12.264-21.158,20.063-34.126,25.782-33.491
		c1.735,0.183,3.007,1.48,3.781,3.857c2.22,6.822,5.031,11.62,7.161,12.224c6.712,1.898,17.511-3.805,26.192-8.388
		c6.874-3.627,12.305-6.499,15.48-5.708l0,0c10.297,2.549,19.291,16.249,23.474,35.755c8.562,39.928-2.827,103.326-63.098,150.598
		C1658.428,1397.811,1658.107,1397.988,1657.674,1397.988z M1585.347,1318.405c4.54,6.787,64.463,70.021,72.223,76.263
		c58.483-46.348,69.56-108.072,61.217-146.979c-3.88-18.097-12.226-31.235-21.261-33.472l0,0c-2.071-0.506-7.809,2.52-13.359,5.449
		c-9.631,5.084-20.543,10.849-28.409,8.621c-4.172-1.182-7.305-8.364-9.198-14.183c-0.169-0.52-0.629-1.737-1.243-1.803
		c-0.046-0.004-0.093-0.007-0.141-0.007c-4.17,0-14.884,18.482-22.73,32.021c-10.899,18.802-17.872,30.299-22.785,31.418l-0.3,0.068
		l-44.002-8.049l-4.5,20.952l42.146,19.022l-1.814,1.535C1591.147,1309.299,1586.905,1312.964,1585.347,1318.405z"/>
	<polygon style="fill:#E2474B;" points="1518.764,1287.891 1507.932,1258.479 1528.872,1250.948 1544.872,1289.575 
		1526.402,1297.302 1519.696,1288.95 	"/>
	<path style="fill:#1B2746;" d="M1525.939,1299.121l-7.413-9.232l-1.072-1.219l-11.452-31.093l23.71-8.524l17.119,41.329
		L1525.939,1299.121z M1520.075,1287.109l0.748,0.85l6.042,7.523l16.05-6.714l-14.881-35.925l-18.173,6.534L1520.075,1287.109z"/>
	<path style="fill:#FFFFFF;" d="M1553.109,1305.912l-11.915-4.099c0,0-6.75,4.962-9.208,4.458
		c-5.092-1.043-14.106-15.111-13.223-18.381c0.885-3.271,16.996-5.889,16.996-5.889s-2.47-6.807-2.698-8.533
		c-0.051-0.386,4.383-0.934,5.689-0.413c1.746,0.696,4.975,4.69,4.975,4.69l13.759,14.557L1553.109,1305.912z"/>
	<path style="fill:#0E2549;" d="M1554.069,1307.828l-12.628-4.344c-2.219,1.57-7.157,4.775-9.756,4.257
		c-3.651-0.748-8.235-6.349-11.051-10.918c-1.516-2.46-3.963-6.942-3.318-9.325c0.902-3.336,10.003-5.53,16.432-6.676
		c-0.77-2.198-1.998-5.835-2.174-7.157l-0.113-0.853l0.727-0.607c1.047-0.814,5.571-1.159,7.118-0.543
		c1.97,0.785,4.889,4.281,5.55,5.096l14.329,15.158L1554.069,1307.828z M1534.84,1274.495c0.522,1.85,1.607,5.002,2.33,6.994
		l0.617,1.701l-1.786,0.291c-7.748,1.261-15.132,3.521-15.802,4.838c-0.111,0.495,0.565,3.155,3.391,7.569
		c3.045,4.756,6.703,8.505,8.697,8.913c0.973,0.21,4.705-1.764,8.02-4.197l0.633-0.465l11.21,3.856l3.637-11.309l-13.227-13.998
		c-1.437-1.775-3.513-3.901-4.364-4.24C1537.695,1274.261,1536,1274.341,1534.84,1274.495z"/>
	<path style="fill:#EAB7C2;" d="M1677.144,1257.23c-14.839,17.272-35.303,49.595-59.796,40.231
		c-37.075-14.174-65.97-20.666-66.561-19.228c0,0-4.693,31.369-4.614,32.147c0,0,30.126,13.805,73.732,32.611
		c18.176,7.839,47.238-14.268,66.88-32.248L1677.144,1257.23z"/>
	<path style="fill:#1B2746;" d="M1628.177,1346.096c-3.146,0-6.119-0.541-8.865-1.726c-43.123-18.598-73.462-32.486-73.764-32.625
		l-0.781-0.357l-0.086-0.856c-0.024-0.238-0.097-0.964,4.623-32.519l0.096-0.349c0.476-1.153,1.062-2.593,21.377,2.881
		c8.251,2.224,25.344,7.195,47.107,15.515c19.873,7.599,37.233-13.999,51.184-31.352c2.438-3.032,4.74-5.896,6.938-8.455
		c0.539-0.629,1.485-0.701,2.115-0.16c0.628,0.54,0.7,1.486,0.16,2.115c-2.167,2.521-4.454,5.367-6.876,8.38
		c-14.562,18.111-32.689,40.644-54.592,32.274c-34.03-13.009-59.549-19.023-64.705-19.324c-1.618,10.84-3.841,25.954-4.337,29.925
		c5.52,2.517,33.948,15.428,72.728,32.153c17.042,7.349,44.903-13.332,65.273-31.978c0.61-0.561,1.559-0.518,2.119,0.094
		c0.56,0.611,0.518,1.56-0.094,2.119C1669.894,1328.24,1646.239,1346.095,1628.177,1346.096z"/>
	<path style="fill:#0E2549;" d="M1602.061,1293.374c-0.307,0-0.616-0.094-0.883-0.288c-0.669-0.487-0.816-1.426-0.328-2.096
		l36.898-50.62c0.486-0.669,1.426-0.817,2.096-0.328c0.669,0.487,0.816,1.426,0.328,2.096l-36.898,50.62
		C1602.98,1293.16,1602.523,1293.374,1602.061,1293.374z"/>
	<path style="fill:#0E2549;" d="M1669.747,1173.987c0.94,0.797-1.518,5.11-5.513,6.037c-6.52,1.513-9.746-2.344-8.102-2.466
		c0.645-0.048,3.351,0.628,7.233-0.353C1667.555,1176.148,1669.116,1173.453,1669.747,1173.987z"/>
	<path style="fill:#A1C5E2;" d="M1554.398,1366.068c-0.769,0-1.453-0.548-1.598-1.331c-0.163-0.884,0.421-1.732,1.304-1.896
		l42.473-7.846c0.891-0.167,1.732,0.421,1.896,1.304c0.163,0.884-0.421,1.732-1.304,1.896l-42.473,7.846
		C1554.596,1366.06,1554.496,1366.068,1554.398,1366.068z"/>
	<path style="fill:#0E2549;" d="M1630.47,1131.342c-0.586,0.926,0.357,5.334,0.357,5.334s-3.355,0.721-2.148,5.916
		c1.206,5.194,5.431,3.146,5.431,3.146s1.469,4.885,3.745,4.604c2.275-0.279,4.778-5.341,4.778-5.341s1.066,4.999,3.111,3.519
		s3.718-5.354,3.718-5.354s2.579,4.903,4.288,3.621c1.709-1.281,1.738-5.379,2.413-4.68c0.675,0.698,4.122,4.737,6.176,2.781
		s2.981-5.158,2.981-5.158s3.835,2.933,5.692,2.054c1.876-0.887,2.071-4.105,2.071-4.105s3.581,2.701,5.32,1.485
		c2.418-1.689,2.294-4.499,2.294-4.499s3.87,6.651,6.442,3.979c1.45-1.507,1.463-4.557,1.463-4.557s2.769,4.336,4.444,2.239
		c1.517-1.896-0.823-4.588-0.823-4.588s3.959-1.218,2.352-4.343c-1.238-2.41-3.698-1.457-3.698-1.457s1.741-5.034-1.845-6.685
		c-2.958-1.36-4.54,0.076-4.54,0.076s-2.696-6.268-5.886-3.798c-2.557,1.979-2.542,2.789-2.542,2.789s-2.858-4.384-4.742-2.418
		c-1.884,1.967-2.463,3.595-2.463,3.595s-5.79-3.629-8.686-0.925c-3.351,3.13-3.258,3.699-3.258,3.699s-1.506-2.886-3.343-0.717
		c-1.838,2.169-2.198,3.497-2.198,3.497s-4.267-1.752-5.323-1.003c-1.338,0.948-0.646,3.58-0.646,3.58s-1.803-2.514-4.712-0.843
		c-2.908,1.672-2.374,3.251-3.005,3.416C1637.061,1130.369,1632.569,1128.022,1630.47,1131.342z"/>
</g>
<g>
	<polygon style="fill:#FFFFFF;" points="362.049,1467.568 360.165,1500.003 385.011,1499.857 390.077,1470.411 	"/>
	<path style="fill:#0E2549;" d="M358.575,1501.513l2.067-35.595l31.185,3.163l-5.551,32.269L358.575,1501.513z M363.456,1469.219
		l-1.7,29.274l21.99-0.128l4.58-26.624L363.456,1469.219z"/>
	<path style="fill:#EAB7C2;" d="M358.692,1497.367c0,0-38.28,12.397-39.544,22.436l68.768-0.401l-0.13-22.204L358.692,1497.367z"/>
	<polygon style="fill:#0E2549;" points="390.04,1515.197 390.077,1521.345 317.011,1521.772 316.973,1515.178 	"/>
	<path style="fill:#0E2549;" d="M371.792,1514.717c-0.825,0-1.495-0.666-1.5-1.491l-0.078-13.323
		c-0.005-0.828,0.663-1.504,1.491-1.509c0.003,0,0.006,0,0.009,0c0.825,0,1.495,0.666,1.5,1.491l0.078,13.323
		c0.005,0.828-0.663,1.504-1.491,1.509C371.798,1514.717,371.795,1514.717,371.792,1514.717z"/>
	<polygon style="fill:#FFFFFF;" points="283.615,1467.568 278.105,1500.58 302.951,1500.436 308.017,1470.988 	"/>
	<path style="fill:#0E2549;" d="M276.332,1502.091l6.044-36.211l27.381,3.838l-5.54,32.209L276.332,1502.091z M284.854,1469.257
		l-4.976,29.813l21.808-0.127l4.589-26.684L284.854,1469.257z"/>
	<path style="fill:#EAB7C2;" d="M276.632,1497.944c0,0-38.28,12.397-39.543,22.437l68.767-0.402l-0.13-22.204L276.632,1497.944z"/>
	<polygon style="fill:#0E2549;" points="307.98,1515.774 308.017,1521.922 234.951,1522.35 234.913,1515.755 	"/>
	<path style="fill:#0E2549;" d="M289.732,1515.294c-0.825,0-1.495-0.666-1.5-1.491l-0.078-13.323
		c-0.005-0.828,0.663-1.504,1.491-1.509c0.003,0,0.006,0,0.009,0c0.825,0,1.495,0.666,1.5,1.491l0.078,13.323
		c0.005,0.828-0.663,1.504-1.491,1.509C289.738,1515.294,289.735,1515.294,289.732,1515.294z"/>
	<path style="fill:#0E2549;" d="M396.565,1171.89l-27.399,31.059l1.547,13.177l0,0h-17.181c0,0-45.601,120.471-54.071,142.588
		c-8.471,22.118-24.471,119.529-24.471,119.529l41.982,3.291c0,0,11.556-70.489,22.841-103.408
		c4.338-12.654,20.619-43.5,34.057-68.107c-4.772,28.006-11.679,68.826-13.072,78.555c-4.057,28.326-8.396,91.76-8.396,91.76
		l45.371,1.201l8.858-88.227c0,0,31.602-64.746,40.955-93.227C486.284,1182.242,396.565,1171.89,396.565,1171.89z"/>
	<path style="fill:#A1C5E2;" d="M376.337,1307.143c-0.042,0-0.084-0.002-0.126-0.005c-0.896-0.068-1.566-0.85-1.499-1.746
		l3.858-50.567c0.068-0.896,0.863-1.563,1.746-1.498c0.896,0.068,1.566,0.85,1.499,1.746l-3.858,50.567
		C377.892,1306.493,377.179,1307.143,376.337,1307.143z"/>
	<path style="fill:#FFFFFF;" d="M367.267,1021.546c0,0,5.005,25.502,3.302,28.774c-1.703,3.271-9.229,19.158-9.229,19.158
		l28.653,49.415l43.567-10.788l-3.805-45.666c0,0-22.596-13.459-24.31-16.655c-2.373-4.422-6.056-29.372-6.056-29.372
		L367.267,1021.546z"/>
	<path style="fill:#0E2549;" d="M389.259,1120.619l-29.613-51.071l0.338-0.713c0.308-0.649,7.558-15.948,9.254-19.208
		c0.868-1.896-1.111-15.905-3.443-27.793c-0.16-0.813,0.37-1.602,1.183-1.761c0.814-0.163,1.602,0.371,1.761,1.183
		c1.198,6.103,4.966,26.288,3.161,29.756c-1.465,2.816-7.384,15.271-8.867,18.396l27.692,47.759l41.232-10.209l-3.633-43.625
		c-6.04-3.612-22.496-13.658-24.202-16.839c-2.426-4.522-5.837-27.282-6.218-29.863c-0.121-0.819,0.445-1.582,1.265-1.703
		c0.821-0.119,1.583,0.445,1.703,1.266c1.014,6.868,4.05,25.445,5.893,28.883c0.973,1.784,12.843,9.575,23.757,16.075l0.663,0.396
		l3.975,47.708L389.259,1120.619z"/>
	<path style="fill:#0E2549;" d="M373.92,966.701c6.135-0.965,21.008-3.5,23.862,7.147c3.255,12.145,5.386,28.312,6.366,36.863
		c0.387,3.375-1.757,6.521-5.039,7.4l-36.751,9.851c-3.367,0.902-6.874-0.863-8.153-4.105
		c-4.307-10.913-12.327-34.534-11.953-38.486C343.527,971.919,364.206,968.229,373.92,966.701z"/>
	<path style="fill:#FFFFFF;" d="M384.085,1035.578c-9.102,3.734-21.398,4.918-25.633,2.182c-2.483-1.604-5.496-9.775-8.275-19.273
		c-0.081-0.274-8.41-34.355-8.41-34.355l42.155-11.298c0,0,2.672,10.298,5.356,21.931c0.121,0.522,0.712,0.723,1.047,0.355
		c1.848-2.022,4.606-4.009,5.85,0.28c1.551,5.344-1.899,9.851-3.821,11.611c-0.2,0.183-0.286,0.474-0.227,0.762
		c1.688,8.259,2.867,15.477,2.521,18.235c-0.188,1.503-0.943,2.911-2.117,4.207L384.085,1035.578z"/>
	<path style="fill:#0E2549;" d="M365.944,1040.745c-3.462,0-6.445-0.522-8.306-1.726c-1.597-1.032-4.257-4.24-8.901-20.112
		c-0.082-0.277-5.92-24.163-8.427-34.42l-0.349-1.426l45.033-12.068l0.38,1.463c0.025,0.099,2.482,9.583,5.023,20.494
		c1.516-1.307,2.931-1.816,4.22-1.517c1.402,0.327,2.411,1.52,2.999,3.546c1.511,5.206-1.118,10.098-3.945,12.85
		c1.985,9.758,2.792,15.767,2.467,18.363c-0.22,1.752-1.059,3.443-2.494,5.027c-0.557,0.615-1.504,0.662-2.119,0.104
		c-0.614-0.556-0.661-1.504-0.105-2.118c1.014-1.119,1.599-2.259,1.741-3.387c0.195-1.559-0.081-5.902-2.503-17.748
		c-0.164-0.802,0.098-1.634,0.684-2.17c0.51-0.467,4.948-4.725,3.393-10.086c-0.326-1.121-0.687-1.435-0.799-1.46
		c-0.199-0.055-1.045,0.179-2.503,1.774c-0.521,0.57-1.306,0.805-2.053,0.607c-0.779-0.205-1.378-0.832-1.564-1.638
		c-2.063-8.941-4.141-17.176-4.97-20.425L343.573,985.2c2.911,11.911,7.908,32.347,8.052,32.896
		c4.385,14.984,6.805,17.863,7.642,18.404c3.717,2.403,15.501,1.279,24.249-2.31c0.769-0.313,1.643,0.053,1.957,0.818
		c0.314,0.767-0.052,1.643-0.818,1.957C379.147,1039.225,371.849,1040.745,365.944,1040.745z"/>
	<path style="fill:#0E2549;" d="M354.638,1008.987c-0.656,0-1.258-0.434-1.444-1.096l-0.305-1.09
		c-0.223-0.798,0.243-1.626,1.041-1.849c0.796-0.224,1.625,0.243,1.849,1.04l0.305,1.09c0.223,0.798-0.243,1.626-1.041,1.849
		C354.908,1008.97,354.771,1008.987,354.638,1008.987z"/>
	<path style="fill:#0E2549;" d="M373.613,1004.035c-0.668,0-1.277-0.449-1.452-1.126l-0.282-1.096
		c-0.207-0.802,0.276-1.62,1.079-1.826c0.806-0.214,1.62,0.276,1.827,1.078l0.282,1.096c0.206,0.802-0.276,1.62-1.079,1.826
		C373.863,1004.021,373.737,1004.035,373.613,1004.035z"/>
	<path style="fill:#0E2549;" d="M368.348,996.788c-0.514,0-1.015-0.264-1.294-0.739c-0.42-0.714-0.182-1.634,0.532-2.054
		c0.173-0.102,4.299-2.479,9.158-1.104c0.797,0.226,1.26,1.055,1.035,1.852c-0.226,0.797-1.056,1.261-1.852,1.034
		c-3.641-1.03-6.788,0.784-6.819,0.803C368.869,996.722,368.606,996.788,368.348,996.788z"/>
	<path style="fill:#0E2549;" d="M348.248,1003.446c-0.377,0-0.754-0.141-1.045-0.424c-0.594-0.578-0.607-1.527-0.03-2.121
		c3.522-3.625,8.276-3.643,8.483-3.625c0.829,0.007,1.495,0.684,1.488,1.513c-0.007,0.824-0.677,1.487-1.5,1.487
		c-0.003,0-0.005,0-0.007,0c-0.079,0.001-3.722,0.049-6.313,2.715C349.03,1003.294,348.639,1003.446,348.248,1003.446z"/>
	<path style="fill:#0E2549;" d="M365.517,1016.761c-1.469,0-4.269-0.251-5.142-2.083c-0.728-1.528-0.668-2.071-0.095-7.27
		c0.122-1.114,0.271-2.462,0.445-4.104c0.087-0.824,0.821-1.429,1.649-1.334c0.824,0.087,1.421,0.825,1.334,1.648
		c-0.174,1.647-0.323,3-0.446,4.118c-0.523,4.746-0.52,4.93-0.208,5.589c0.356,0.275,1.746,0.477,2.922,0.425
		c0.832-0.024,1.53,0.598,1.57,1.425c0.04,0.827-0.595,1.53-1.422,1.571C365.969,1016.754,365.762,1016.761,365.517,1016.761z
		 M363.085,1013.389h0.01H363.085z"/>
	<path style="fill:#0E2549;" d="M396.417,1005.714c0,0-1.012,1.745-3.15,5.36c-2.469,4.174-33.885,10.672-36.354,10.155
		c-5.44-1.14-5.33-5.668-7.03-4.823c-2.105,1.047,6.228,22.301,9.363,24.764c3.134,2.461,25.884-2.487,37.285-8.184
		C406,1028.254,396.417,1005.714,396.417,1005.714z"/>
	<path style="fill:#FFFFFF;" d="M360.695,1023.552c-0.338,1.196,3.872,3.975,7.549,2.874c6.001-1.797,6.578-6.938,5.199-6.245
		c-0.54,0.271-2.354,2.221-5.971,3.218C363.573,1024.473,360.922,1022.75,360.695,1023.552z"/>
	<path style="fill:#0E2549;" d="M389.177,974.017c0,0-32.104,19.381-51.123,11.359c-19.019-8.023,5.854-15.227,21.302-17.728
		C374.804,965.148,396.714,962.542,389.177,974.017z"/>
	<path style="fill:#FFFFFF;" d="M284.002,1109.75c0,0-5.78,0.92-9.025-1.165c-3.244-2.084-1.176-12.107-4.675-10.663
		c-1.673,0.691-2.487,9.185-2.487,9.185l-14.839-1.985c0,0-1.944,12.848,6.309,17.666c6.874,4.014,24.19,0.164,24.268,0.021
		C283.724,1122.493,284.002,1109.75,284.002,1109.75z"/>
	<path style="fill:#0E2549;" d="M268.851,1126.112c-3.882,0-7.702-0.501-10.321-2.03c-9.028-5.271-7.121-18.621-7.035-19.187
		l0.22-1.458l14.775,1.978c0.632-5.267,1.72-8.251,3.241-8.88c1.125-0.463,1.959-0.212,2.461,0.082
		c1.504,0.876,1.772,3.035,2.083,5.535c0.239,1.925,0.567,4.563,1.514,5.171c2.267,1.456,6.527,1.177,7.977,0.945l1.775-0.282
		l-0.039,1.797c-0.286,13.106-0.416,13.346-0.631,13.74c-0.307,0.568-0.828,0.714-1.05,0.776
		C283.71,1124.33,276.171,1126.112,268.851,1126.112z M254.328,1106.814c-0.189,3.314-0.007,11.337,5.714,14.678
		c5.362,3.131,18.442,0.922,22.108,0.126c0.093-1.834,0.216-6.049,0.314-10.209c-2.151,0.128-5.79,0.049-8.297-1.563
		c-2.129-1.368-2.522-4.532-2.869-7.324c-0.113-0.91-0.271-2.176-0.484-2.895c-0.55,1.243-1.201,4.469-1.504,7.621l-0.149,1.55
		L254.328,1106.814z"/>
	<polygon style="fill:#E2474B;" points="264.131,1086.032 267.469,1120.163 251.438,1122.666 246.948,1087.18 	"/>
	<path style="fill:#1B2746;" d="M250.144,1124.387l-4.883-38.598l20.223-1.351l3.617,36.987L250.144,1124.387z M248.636,1088.57
		l4.096,32.375l13.105-2.047l-3.058-31.272L248.636,1088.57z"/>
	<path style="fill:#FFFFFF;" d="M284.326,1135.143c0,0-20.823-5.03-25.58-4.474c-4.757,0.558-14.468-4.86-14.908-15.067
		c-0.439-10.207,4.675-10.342,4.675-10.342s1.07,5.926,1.477,6.99c0.648,1.695,6.142,5.394,6.142,5.394s0.831-9.458,3.69-10.441
		c2.86-0.984,3.515,12.087,3.515,12.087l23.193-1.235L284.326,1135.143z"/>
	<path style="fill:#0E2549;" d="M285.6,1136.992l-1.625-0.393c-5.72-1.382-21.376-4.886-25.053-4.44
		c-3.054,0.352-7.12-1.203-10.374-3.975c-3.794-3.232-5.999-7.678-6.207-12.519c-0.2-4.647,0.665-8.041,2.572-10.084
		c1.607-1.722,3.367-1.816,3.563-1.821l1.287-0.034l0.229,1.267c0.514,2.845,1.178,6.137,1.402,6.721
		c0.222,0.515,1.713,1.853,3.557,3.242c0.518-3.365,1.719-8.255,4.387-9.173c0.734-0.251,1.496-0.148,2.147,0.293
		c2.196,1.484,2.983,7.802,3.261,11.636l23.506-1.252L285.6,1136.992z M259.576,1129.13c5.229,0,18.59,3.02,23.476,4.167
		l1.762-13.649l-22.898,1.22l-0.076-1.503c-0.232-4.606-1.05-9.217-1.829-10.529c-0.943,0.997-2.038,5.004-2.384,8.939l-0.222,2.533
		l-2.109-1.42c-1.771-1.191-5.968-4.172-6.706-6.102c-0.304-0.795-0.851-3.524-1.216-5.444c-1.105,0.985-2.245,3.359-2.037,8.195
		c0.172,3.998,2.002,7.679,5.155,10.363c2.996,2.552,6.287,3.494,8.079,3.278C258.859,1129.146,259.196,1129.13,259.576,1129.13z"/>
	<path style="fill:#E2474B;" d="M408.693,1044.264c-5.947,0.402-20.528,23.385-32.234,23.787c-3.543,0.122-8.468-5.998-10.754-9.166
		c-10.28-14.25-11.442,49.933-20.113,55.061l-64.378-8.31l-4.333,22.481l71.456,3.955c11.175,9.932-10.957,74.78-4.579,86.372
		c0.81,1.472,111.308,2.436,111.468,0.765C464.835,1118.894,435.83,1042.427,408.693,1044.264z"/>
	<path style="fill:#E2474B;" d="M421.266,1069.313c-15.537-8.206-35.565,61.948-74.07,54.23
		c-40.247-8.066-71.111-10.24-71.568-8.866c0,0-1.43,28.927-1.262,29.62c0,0,32.957,8.62,80.529,20.038
		c19.83,4.758,47.708-18.916,66.213-37.66C431.611,1116.037,436.136,1077.168,421.266,1069.313z"/>
	<path style="fill:#0E2549;" d="M353.59,1165.172c-0.819,0-1.488-0.658-1.499-1.479c-0.011-0.828,0.651-1.509,1.479-1.521
		c8.669-0.117,13.808-0.206,23.916-0.397c19.249-0.364,39.626-28.677,53.332-52.364c0.415-0.717,1.333-0.964,2.049-0.547
		c0.717,0.414,0.962,1.332,0.547,2.049c-14.092,24.356-35.225,53.472-55.872,53.862c-10.115,0.191-15.256,0.28-23.931,0.397
		C353.603,1165.172,353.597,1165.172,353.59,1165.172z"/>
	<path style="fill:#0E2549;" d="M395.72,1093.263c-0.658-0.5-1.6-0.377-2.103,0.282c-10.333,13.529-22.389,27.553-37.482,29.347
		l10.061-31.862c0.249-0.79-0.189-1.633-0.979-1.883c-0.789-0.246-1.632,0.188-1.882,0.979l-10.266,32.511
		c-0.047,0.148-0.062,0.297-0.063,0.444c-2.02,0.009-4.089-0.19-6.217-0.654c-23.534-5.125-41.866-7.738-50.699-8.839
		c-21.589-2.691-22.044-1.394-22.446-0.25l-0.079,0.226l-0.7,30.7c-0.019,0.828,0.637,1.515,1.465,1.534c0.012,0,0.023,0,0.035,0
		c0.813,0,1.48-0.649,1.499-1.466l0.669-29.322c5.384-0.29,33.092,2.393,69.618,10.349c20.307,4.422,35.957-11.804,49.85-29.993
		C396.504,1094.707,396.378,1093.766,395.72,1093.263z"/>
</g>
<g>
	<path style="fill:#0E2549;" d="M664.641,1489.423c0,0-55.751-62.213,50.99-40.181l0.311-8.729c0,0,80.999,0.317,88.356-3.465
		l-0.578,10.409c0,0,83.063-11.468,94.204,3.932c13.026,18.007-21.669,64.633-72.854,57.273c-9.864-1.418-49.918-2.867-49.918-2.867
		l-44.102,7.094L664.641,1489.423z"/>
	<path style="fill:#0E2549;" d="M670.307,1447.613c-28.988-2.634-27.109,28.408-7.019,46.528
		c25.938,23.396,109.873,26.925,109.873,26.925l17.716-19.035C790.875,1502.031,719.994,1452.126,670.307,1447.613z"/>
	<path style="fill:#A1C5E2;" d="M784.526,1522.289c-0.174,0-0.351-0.028-0.525-0.087c-0.85-0.29-1.305-1.215-1.015-2.064
		l5.932-17.407c-71.393-44.236-115.633-51.813-116.074-51.884c-0.887-0.145-1.488-0.98-1.344-1.867s0.98-1.494,1.866-1.344
		c0.45,0.073,45.788,7.837,118.369,53.015l1.097,0.683l-6.767,19.854C785.835,1521.863,785.203,1522.289,784.526,1522.289z"/>
	<path style="fill:#0E2549;" d="M878.284,1453.066c28.988-2.633,25.011,26.526,5.412,45.176
		c-26.998,25.689-110.537,22.824-110.537,22.824l-11.933-15.385C761.227,1505.682,828.597,1457.579,878.284,1453.066z"/>
	<path style="fill:#A1C5E2;" d="M745.251,1517.611c-0.527,0-1.043-0.255-1.356-0.727c-0.498-0.748-0.294-1.758,0.454-2.255
		c60.322-40.092,123.078-67.309,123.705-67.579c0.827-0.352,1.782,0.026,2.138,0.851c0.355,0.824-0.025,1.781-0.85,2.138
		c-0.625,0.269-63.123,27.376-123.192,67.3C745.873,1517.523,745.56,1517.611,745.251,1517.611z"/>
	<path style="fill:#FFFFFF;" d="M751.371,1280.68c0,0,1.074,32.379-1.5,36.071c-2.573,3.693-16.016,12.099-16.016,12.099
		l45.802,32.247l27.476-31.593c0,0-14.72-7.202-16.111-11.474c-1.925-5.91-1.573-37.351-1.573-37.351H751.371z"/>
	<path style="fill:#0E2549;" d="M779.901,1363.103l-48.757-34.327l1.916-1.197c3.667-2.293,13.615-8.862,15.58-11.685
		c1.433-2.056,1.751-19.493,1.232-35.165l2.997-0.1c0.183,5.49,0.953,33.076-1.767,36.979c-2.154,3.092-10.62,8.764-14.553,11.304
		l42.864,30.179l25.321-29.115c-4.361-2.249-13.852-7.528-15.139-11.48c-1.98-6.076-1.662-36.539-1.647-37.833l3,0.033
		c-0.097,8.677-0.018,32.214,1.5,36.87c0.823,2.527,9.468,7.715,15.344,10.591l1.754,0.858L779.901,1363.103z"/>
	<path style="fill:#0E2549;" d="M759.566,1235.175c0,0-17.454,2.617-17.454,13.09c0,11.944,2.021,27.303,3.224,35.39
		c0.475,3.191,3.216,5.551,6.443,5.551h36.144c3.312,0,6.095-2.481,6.472-5.771c1.268-11.072,3.746-34.518,2.43-38.053
		C792.349,1233.354,759.566,1235.175,759.566,1235.175z"/>
	<path style="fill:#FFFFFF;" d="M762.734,1301.538c10.251,1.188,23.051-0.75,26.604-4.302c2.083-2.083,2.918-10.321,3.156-19.721
		c0.007-0.271,0.159-0.517,0.395-0.652c2.533-1.451,6.198-4.558,6.092-9.221c-0.092-4.039-3.127-3.191-5.51-1.892
		c-0.425,0.231-0.942-0.072-0.951-0.557c-0.188-11.334-0.836-21.271-0.836-21.271h-45.848c0,0,0.09,10.107,0.53,21.44
		c0.02,0.509-0.525,0.838-0.966,0.584c-2.425-1.401-5.764-2.547-5.86,1.694c-0.12,5.285,4.605,8.572,7.035,9.715
		c0.253,0.118,0.419,0.364,0.437,0.643c0.533,7.993,1.3,14.906,2.401,17.353c0.6,1.333,3.633,3.536,5.176,4.437L762.734,1301.538z"
		/>
	<path style="fill:#0E2549;" d="M768.965,1303.375c-2.226,0-4.399-0.114-6.403-0.347c-0.823-0.096-1.413-0.84-1.317-1.663
		c0.096-0.822,0.831-1.417,1.663-1.317c9.9,1.15,22.232-0.735,25.37-3.873c0.692-0.692,2.343-3.899,2.716-18.697
		c0.02-0.785,0.459-1.519,1.146-1.914c1.64-0.94,5.438-3.586,5.341-7.887c-0.023-0.974-0.25-1.362-0.381-1.438
		c-0.235-0.136-1.144-0.136-2.911,0.828c-0.667,0.361-1.453,0.351-2.105-0.03c-0.653-0.382-1.051-1.063-1.064-1.819
		c-0.144-8.709-0.566-16.666-0.748-19.794h-42.918c0.043,3.236,0.175,11.241,0.511,19.882c0.03,0.782-0.367,1.518-1.036,1.921
		c-0.668,0.403-1.504,0.411-2.18,0.02c-1.958-1.131-2.968-1.154-3.226-1.009c-0.177,0.1-0.364,0.583-0.384,1.439
		c-0.118,5.211,5.529,8.021,6.174,8.323c0.743,0.347,1.241,1.076,1.295,1.9c0.762,11.437,1.656,15.468,2.272,16.836
		c0.324,0.722,2.67,2.652,4.565,3.757c0.715,0.418,0.957,1.336,0.539,2.052c-0.417,0.715-1.335,0.957-2.051,0.54
		c-0.047-0.027-4.773-2.859-5.789-5.117c-1.042-2.314-1.861-8.023-2.501-17.445c-3.624-1.839-7.623-5.706-7.503-10.914
		c0.044-1.957,0.688-3.298,1.913-3.986c1.224-0.688,2.855-0.575,4.859,0.334c-0.389-10.629-0.475-19.922-0.476-20.019l-0.013-1.514
		h48.767l0.091,1.402c0.006,0.096,0.602,9.32,0.814,20.003c1.891-0.8,3.436-0.864,4.607-0.188c1.203,0.695,1.835,2.03,1.879,3.967
		c0.127,5.604-4.25,8.988-6.498,10.351c-0.418,15.428-2.243,18.997-3.583,20.337
		C787.056,1301.639,777.616,1303.375,768.965,1303.375z M745.935,1278.715c0.001,0,0.002,0.001,0.004,0.002
		C745.936,1278.716,745.936,1278.715,745.935,1278.715z"/>
	<path style="fill:#E2474B;" d="M830.459,1452.525c0,0-80.116,15.268-117.709,0c-2.199-0.893,13.346-59.097,13.346-59.097
		c-18.386-7.632-33.176-17.621-32.592-19.139c0,0,25.951-61.719,45.63-52.958c27.633,12.302,49.442,1.854,59.364-1.157
		c18.884-5.731,49.016,54.647,49.016,54.647c1.581,4.003-20.503,11.145-33.16,18.104
		C814.354,1392.926,833.983,1450.701,830.459,1452.525z"/>
	<path style="fill:#0E2549;" d="M779.917,1277.066c-0.007,0-0.014,0-0.021,0c-1.104-0.012-1.99-0.916-1.979-2.021l0.012-1.075
		c0.012-1.104,0.893-1.98,2.021-1.979c1.104,0.012,1.99,0.916,1.979,2.021l-0.012,1.075
		C781.905,1276.185,781.012,1277.066,779.917,1277.066z"/>
	<path style="fill:#0E2549;" d="M758.665,1277.066c-1.096,0-1.989-0.883-2-1.98l-0.01-1.075c-0.01-1.104,0.877-2.009,1.981-2.02
		c0.006,0,0.013,0,0.02,0c1.096,0,1.989,0.883,2,1.98l0.01,1.075c0.01,1.105-0.876,2.009-1.981,2.02
		C758.678,1277.066,758.671,1277.066,758.665,1277.066z"/>
	<path style="fill:#0E2549;" d="M754.097,1271.665c-0.511,0-1.009-0.261-1.29-0.731c-0.425-0.712-0.192-1.633,0.52-2.057
		c4.151-2.475,8.549-1.299,8.734-1.247c0.798,0.221,1.266,1.047,1.045,1.846c-0.22,0.796-1.042,1.268-1.84,1.047
		c-0.044-0.012-3.385-0.867-6.403,0.931C754.623,1271.597,754.358,1271.665,754.097,1271.665z"/>
	<path style="fill:#0E2549;" d="M784.421,1271.665c-0.261,0-0.526-0.068-0.767-0.212c-3.022-1.801-6.368-0.938-6.403-0.931
		c-0.795,0.217-1.621-0.258-1.837-1.055c-0.217-0.797,0.248-1.618,1.043-1.838c0.186-0.051,4.585-1.227,8.734,1.247
		c0.711,0.424,0.944,1.345,0.519,2.057C785.43,1271.404,784.932,1271.665,784.421,1271.665z"/>
	<path style="fill:#0E2549;" d="M768.957,1287.997c-0.719,0-1.354-0.52-1.477-1.253c-0.136-0.817,0.416-1.59,1.232-1.727
		c1.454-0.243,2.98-0.637,3.839-0.969c-0.746-0.914-2.033-2.588-3.512-6.433c-0.297-0.772,0.088-1.641,0.861-1.938
		c0.775-0.296,1.642,0.089,1.938,0.862c1.384,3.599,2.487,4.943,3.146,5.746c0.518,0.632,1.106,1.349,0.897,2.478
		c-0.119,0.648-0.399,2.167-6.677,3.213C769.123,1287.99,769.04,1287.997,768.957,1287.997z M772.989,1284.604h0.01H772.989z"/>
	<path style="fill:#0E2549;" d="M777.336,1290.1c0.698,1.029-2.86,4.555-6.994,4.373c-6.745-0.298-8.835-4.92-7.204-4.593
		c0.639,0.128,3.086,1.519,7.125,1.618C774.62,1291.605,776.868,1289.409,777.336,1290.1z"/>
	<rect x="754.193" y="1415.4" style="fill:#F9E5EF;" width="28.634" height="53.425"/>
	<path style="fill:#1B2746;" d="M784.327,1470.325h-31.634V1413.9h31.634V1470.325z M755.693,1467.325h25.634V1416.9h-25.634
		V1467.325z"/>
	<path style="fill:#FFFFFF;" d="M858.786,1421.164c-6.68,12.178-59.652,35.056-59.652,35.056s-17.699,6.458-20.106,5.657
		c-4.989-1.657-13.039-16.19-11.953-19.177c1.086-2.986,15.599-3.295,15.599-3.295s0.271-7.032,0.153-8.701
		c-0.026-0.372,3.77-0.12,5.034,0.546c1.688,0.889,4.638,5.104,4.638,5.104l3.607,4.425l33.95-29.969l-13.788-27.289l23.306-10.082
		C839.574,1373.438,866.04,1407.941,858.786,1421.164z"/>
	<path style="fill:#0E2549;" d="M779.472,1463.413c-0.377,0-0.686-0.036-0.918-0.113c-4.29-1.426-9.059-9.315-10.979-13.288
		c-1.801-3.724-2.443-6.356-1.909-7.824c1.154-3.173,9.688-4.031,15.56-4.241c0.08-2.388,0.18-6.08,0.106-7.138l-0.061-0.879
		l0.779-0.547c1.169-0.762,5.3-0.098,6.511,0.539c1.878,0.989,4.539,4.676,5.137,5.526l2.587,3.173l31.912-28.169l-13.984-27.676
		l25.84-11.179l0.712,0.928c1.105,1.44,26.974,35.438,19.337,49.36l0,0c-6.849,12.485-58.19,34.769-60.372,35.711
		C793.485,1459.877,783.199,1463.413,779.472,1463.413z M784.356,1432.049c0,2.536-0.161,6.827-0.184,7.414l-0.054,1.412
		l-1.413,0.03c-6.815,0.146-13.471,1.248-14.246,2.36c-0.606,2.386,6.72,15.752,11.041,17.188
		c1.527,0.271,11.128-2.727,19.119-5.643c18.078-7.811,53.763-25.094,58.851-34.368l0,0c5.391-9.826-10.82-35.063-18.382-45.16
		l-20.765,8.982l13.594,26.902l-35.989,31.769l-4.658-5.722c-1.14-1.627-3.168-4.142-4.109-4.638
		C786.681,1432.323,785.346,1432.116,784.356,1432.049z"/>
	<path style="fill:#FFFFFF;" d="M686.673,1422.848c6.95,12.233,51.537,30.854,51.537,30.854s18.257,6.573,20.731,5.787
		c5.124-1.63,13.322-16.132,12.186-19.129c-1.136-2.997-16.898-3.273-16.898-3.273s-0.147-7.202-0.036-8.871
		c0.024-0.373-3.234-0.106-4.531,0.553c-1.733,0.881-4.743,5.082-4.743,5.082l-3.686,4.408l-29.228-28l11.23-28.87l-21.557-8.967
		C701.679,1372.421,679.125,1409.563,686.673,1422.848z"/>
	<path style="fill:#0E2549;" d="M758.5,1461.023c-3.779,0-14.419-3.614-20.798-5.911c-1.91-0.795-45.212-18.988-52.334-31.523
		c-7.893-13.892,14.088-50.399,15.028-51.946l0.669-1.102l24.1,10.023l-11.398,29.304l27.345,26.196l2.621-3.135
		c0.611-0.849,3.328-4.523,5.25-5.5c1.084-0.549,4.797-1.326,5.992-0.539l0.728,0.48l-0.013,0.941
		c-0.07,1.069-0.027,4.858,0.013,7.309c6.341,0.192,15.621,1.024,16.827,4.207c0.547,1.442-0.056,3.995-1.792,7.587
		c-2.273,4.7-7.169,12.176-11.342,13.502C759.168,1460.989,758.866,1461.023,758.5,1461.023z M702.3,1374.304
		c-6.466,10.953-19.955,37.89-14.323,47.803c6.619,11.65,50.371,30.026,50.812,30.211c8.21,2.954,18.138,6.005,19.747,5.728
		c4.37-1.392,11.838-14.711,11.184-17.169c-0.817-1.05-8.087-2.159-15.517-2.29l-1.444-0.025l-0.029-1.444
		c-0.005-0.24-0.098-4.863-0.073-7.527c-0.81,0.083-1.833,0.271-2.315,0.516c-0.96,0.487-3.076,3.044-4.204,4.619l-0.068,0.088
		l-4.716,5.64l-31.109-29.804l11.063-28.438L702.3,1374.304z"/>
	<path style="fill:#E2474B;" d="M707.064,1351.915l-13.576,23.51c0,0,15.87,14.184,31.054,17.501l17.882-22.991L707.064,1351.915z"
		/>
	<polygon style="fill:#E2474B;" points="803.18,1377.872 813.572,1394.962 848.467,1376.3 832.741,1351.915 	"/>
	<path style="fill:#0E2549;" d="M800.821,1241.557c-1.947-2.486-5.597-3.534-7.334-3.908c-0.677-3.361-2.289-6.522-6.021-5.984
		c-7.607,1.099-8.32-8.51-15.451-7.412c-7.131,1.099-3.328,3.844-10.697,6.04c-7.369,2.196-10.934-3.107-13.074,4.211
		c-2.139,7.318-7.844,5.397-10.459,10.339s-1.878,10.727,1.688,12.648c3.565,1.921-1.994,5.82,0.859,9.938
		c2.853,4.117,15.044,3.767,17.183-2.272c2.14-6.04,3.286-10.157,7.823-10.432c4.538-0.275,10.005,2.745,13.095,1.646
		c3.09-1.098,7.319-5.273,8.983-4.176c0.142,0.094,0.284,0.211,0.426,0.338c0.186,0.479,0.387,0.926,0.603,1.314
		c1.664,2.998,4.318,5.257,3.367,9.453c-0.951,4.197,9.839-0.224,8.161-5.133C796.516,1248.053,805.199,1247.146,800.821,1241.557z"
		/>
</g>
<path style="fill:#0E2549;" d="M1889.578,1522.566H170.755c-0.829,0-1.5-0.672-1.5-1.5s0.671-1.5,1.5-1.5h1718.823
	c0.828,0,1.5,0.672,1.5,1.5S1890.406,1522.566,1889.578,1522.566z"/>
</svg>
